<svg width="64" height="64" fill="none" xmlns="http://www.w3.org/2000/svg"><g clip-path="url(#clip0_2002_247)" fill-rule="evenodd" clip-rule="evenodd" fill="#fff"><path d="M35.692 25.725a27.475 27.475 0 004.716-2.955c.357.736.396 1.379.212 1.898-.13.365-.376.684-.7.937-.35.273-.786.472-1.27.58a4.21 4.21 0 01-2.958-.46zm.23 6.745l1.76 1.01c-3.594 2-4.571 5.713-5.732 9.33-1.16-3.617-2.138-7.33-5.732-9.33l1.76-1.01a.862.862 0 00.557-.841c-.161-3.388.76-4.886 2.003-5.826.445-.337.932-.506 1.412-.506.48 0 .967.169 1.413.506 1.243.94 2.164 2.438 2.003 5.826a.85.85 0 00.556.84zM31.95 10.35c2.035.055 4.075.447 5.846 1.21a14.725 14.725 0 014.683 3.224c1.144.04 2.816-1.222 3.593-2.403-1.336 4.349-7.434 9.484-11.656 11.45l-.004-.003c-.757-.574-1.61-.861-2.462-.861-.852 0-1.704.287-2.462.861l-.004.003c-4.222-1.966-10.32-7.101-11.655-11.45.776 1.18 2.448 2.443 3.593 2.403.424-.419.81-.783 1.277-1.16a14.723 14.723 0 013.406-2.064c1.77-.763 3.81-1.155 5.845-1.21zm-3.74 15.376a27.467 27.467 0 01-4.716-2.955c-.358.736-.397 1.379-.213 1.898.13.365.377.684.7.937a3.2 3.2 0 001.27.58 4.21 4.21 0 002.959-.46z"/><path d="M42.263 21.143c.933-.934 1.755-1.969 2.415-2.892l.336.628c1.08 2.145 1.642 4.283 1.642 6.688l-.002 3.817.02 1.979c.078 4.858 1.137 9.772 3.535 14.27l-5.018-4.017-3.55 5.72-3.73-3.486-5.961 9.603-5.96-9.603-3.73 3.486-3.551-5.72-5.019 4.017c2.399-4.498 3.458-9.412 3.536-14.27l.02-1.979-.002-3.817c0-2.405.561-4.543 1.642-6.688l.335-.627c.661.922 1.483 1.957 2.416 2.891l-.291.6c-.566 1.167-.754 2.472-.313 3.712a4.453 4.453 0 001.471 2.008c.65.508 1.418.85 2.223 1.03a6.379 6.379 0 001.588.149 12.674 12.674 0 00-.181 2.154L21.4 33.511l3.653 2.032c.292.163.57.349.83.557 3.012 2.684 4.823 10.625 6.067 14.503 1.244-3.878 3.055-11.82 6.066-14.503.262-.208.54-.394.831-.557l3.653-2.032-4.733-2.715a12.684 12.684 0 00-.182-2.154 6.379 6.379 0 001.588-.15 5.574 5.574 0 002.222-1.03 4.453 4.453 0 001.472-2.007c.44-1.24.253-2.545-.313-3.711l-.29-.6v-.001z"/></g><defs><clipPath id="clip0_2002_247"><path fill="#fff" transform="translate(13.69 10.35)" d="M0 0h36.519v43.159H0z"/></clipPath></defs></svg>