<svg width="64" height="64" fill="none" xmlns="http://www.w3.org/2000/svg"><path d="M31.559 18.31h6.8c1.6 0 2.4.4 3 .6.8.4 1.4.6 2 1.2.6.6 1 1.2 1.2 2 .2.6.4 1.4.6 3v13.6c0 1.6-.4 2.4-.6 3-.4.8-.6 1.4-1.2 2-.6.6-1.2 1-2 1.2-.6.2-1.4.4-3 .6h-13.6c-1.6 0-2.4-.4-3-.6-.8-.4-1.4-.6-2-1.2-.6-.6-1-1.2-1.2-2-.2-.6-.4-1.4-.6-3v-13.6c0-1.6.4-2.4.6-3 .4-.8.6-1.4 1.2-2 .6-.6 1.2-1 2-1.2.6-.2 1.4-.4 3-.6h6.8zm0-3h-6.8c-1.8 0-3 .4-4 .8s-2 1-3 2-1.4 1.8-2 3c-.4 1-.6 2.2-.8 4v13.6c0 1.8.4 3 .8 4s1 2 2 3 1.8 1.4 3 2c1 .4 2.2.6 4 .8h13.6c1.8 0 3-.4 4-.8s2-1 3-2 1.4-1.8 2-3c.4-1 .6-2.2.8-4v-13.6c0-1.8-.4-3-.8-4s-1-2-2-3-1.8-1.4-3-2c-1-.4-2.2-.6-4-.8h-6.8z" fill="#fff"/><path d="M31.559 23.31c-4.8 0-8.6 3.8-8.6 8.6s3.8 8.6 8.6 8.6 8.6-3.8 8.6-8.6-3.8-8.6-8.6-8.6zm0 14.2c-3 0-5.6-2.4-5.6-5.6 0-3 2.4-5.6 5.6-5.6 3 0 5.6 2.4 5.6 5.6 0 3-2.6 5.6-5.6 5.6zm8.8-12.4a2 2 0 100-4 2 2 0 000 4z" fill="#fff"/></svg>