<svg width="39" height="39" fill="none" xmlns="http://www.w3.org/2000/svg"><path fill="#fff" d="M8.805 8.128h20.983v20.983H8.805z"/><path fill-rule="evenodd" clip-rule="evenodd" d="M18.588.73c-.483.2-.888.492-1.707 1.232-.883.798-1.545 1.231-2.037 1.334-.493.102-.98.058-2.382-.215-1.69-.33-2.291-.276-2.88.253-.434.39-.62.75-1.09 2.12-.478 1.388-.654 1.747-1.05 2.143-.397.397-.756.572-2.144 1.05-1.37.471-1.73.656-2.12 1.09-.53.59-.583 1.191-.254 2.88.459 2.354.376 2.731-.918 4.177-.811.907-1.292 1.567-1.451 1.993-.357.953-.097 1.57 1.357 3.215 1.4 1.585 1.49 1.961 1.01 4.273-.35 1.686-.265 2.423.35 2.997.436.409.665.52 2.04.993 2.242.771 2.402.932 3.178 3.183.47 1.368.583 1.597.99 2.033.576.614 1.245.691 2.997.343 2.312-.46 2.718-.37 4.162.922 1.273 1.138 2.026 1.598 2.616 1.598.663 0 1.278-.348 2.457-1.39 1.726-1.525 2.031-1.604 4.41-1.13 1.68.334 2.306.28 2.896-.25.434-.39.619-.75 1.09-2.12.777-2.259.936-2.418 3.186-3.19 1.377-.474 1.737-.659 2.128-1.093.53-.59.584-1.215.25-2.895-.474-2.379-.396-2.684 1.13-4.41.807-.913 1.146-1.407 1.284-1.87.273-.919.012-1.494-1.398-3.09-1.403-1.587-1.484-1.926-1.017-4.273.334-1.68.28-2.306-.25-2.896-.39-.434-.75-.619-2.12-1.09-2.258-.777-2.418-.936-3.19-3.179-.472-1.375-.584-1.604-.992-2.04-.574-.614-1.312-.7-2.997-.35-2.313.48-2.689.39-4.274-1.01-.957-.845-1.436-1.19-1.888-1.36-.498-.186-.88-.18-1.372.023zm2.17 16.125l-3.815 3.847-1.426-1.427-1.425-1.426-.167.155a80.98 80.98 0 00-1.292 1.332l-1.125 1.177 2.672 2.672 2.672 2.673 5.09-5.091c2.8-2.8 5.098-5.13 5.108-5.178.01-.048-.543-.649-1.23-1.334l-1.248-1.246-3.814 3.846z" fill="#000"/><path fill-rule="evenodd" clip-rule="evenodd" d="M18.588.73c-.483.2-.888.492-1.707 1.232-.883.798-1.545 1.231-2.037 1.334-.493.102-.98.058-2.382-.215-1.69-.33-2.291-.276-2.88.253-.434.39-.62.75-1.09 2.12-.478 1.388-.654 1.747-1.05 2.143-.397.397-.756.572-2.144 1.05-1.37.471-1.73.656-2.12 1.09-.53.59-.583 1.191-.254 2.88.459 2.354.376 2.731-.918 4.177-.811.907-1.292 1.567-1.451 1.993-.357.953-.097 1.57 1.357 3.215 1.4 1.585 1.49 1.961 1.01 4.273-.35 1.686-.265 2.423.35 2.997.436.409.665.52 2.04.993 2.242.771 2.402.932 3.178 3.183.47 1.368.583 1.597.99 2.033.576.614 1.245.691 2.997.343 2.312-.46 2.718-.37 4.162.922 1.273 1.138 2.026 1.598 2.616 1.598.663 0 1.278-.348 2.457-1.39 1.726-1.525 2.031-1.604 4.41-1.13 1.68.334 2.306.28 2.896-.25.434-.39.619-.75 1.09-2.12.777-2.259.936-2.418 3.186-3.19 1.377-.474 1.737-.659 2.128-1.093.53-.59.584-1.215.25-2.895-.474-2.379-.396-2.684 1.13-4.41.807-.913 1.146-1.407 1.284-1.87.273-.919.012-1.494-1.398-3.09-1.403-1.587-1.484-1.926-1.017-4.273.334-1.68.28-2.306-.25-2.896-.39-.434-.75-.619-2.12-1.09-2.258-.777-2.418-.936-3.19-3.179-.472-1.375-.584-1.604-.992-2.04-.574-.614-1.312-.7-2.997-.35-2.313.48-2.689.39-4.274-1.01-.957-.845-1.436-1.19-1.888-1.36-.498-.186-.88-.18-1.372.023zm2.17 16.125l-3.815 3.847-1.426-1.427-1.425-1.426-.167.155a80.98 80.98 0 00-1.292 1.332l-1.125 1.177 2.672 2.672 2.672 2.673 5.09-5.091c2.8-2.8 5.098-5.13 5.108-5.178.01-.048-.543-.649-1.23-1.334l-1.248-1.246-3.814 3.846z" fill="url(#paint0_radial_31_661)"/><defs><radialGradient id="paint0_radial_31_661" cx="0" cy="0" r="1" gradientUnits="userSpaceOnUse" gradientTransform="rotate(25.964 -5.858 17.696) scale(34.5086 40.3485)"><stop stop-color="#65C3FF"/><stop offset="1" stop-color="#0093F0"/></radialGradient></defs></svg>