<svg width="38" height="38" fill="none" xmlns="http://www.w3.org/2000/svg"><path fill-rule="evenodd" clip-rule="evenodd" d="M17.582.437c-4.48.48-8.096 2.16-11.172 5.191-2.824 2.782-4.7 6.527-5.314 10.614C.9 17.555.9 20.305 1.098 21.57c.375 2.384 1.135 4.59 2.277 6.607l.374.66-.172.29c-.848 1.426-.943 2.744-.295 4.086.992 2.053 3.648 2.817 5.46 1.57.23-.159.445-.288.477-.288.033 0 .347.169.699.375 2.002 1.175 4.07 1.917 6.453 2.318 1.23.207 3.912.21 5.207.005 3.093-.488 5.813-1.65 8.256-3.529 3.821-2.937 6.323-7.237 7.059-12.135.198-1.314.196-4.064-.003-5.327-.376-2.39-1.118-4.567-2.22-6.515-.229-.404-.416-.763-.416-.797 0-.035.127-.255.282-.49 1.512-2.299.012-5.569-2.74-5.974-.965-.142-1.753.058-2.83.72l-.242.15-.646-.394C26.258 1.79 23.94.95 21.699.59 20.92.466 18.244.366 17.582.437z" fill="#fff"/><mask id="a" maskUnits="userSpaceOnUse" x="-.051" y="-.587" width="38" height="39" fill="#000"><path fill="#fff" d="M-.051-.587h38v39h-38z"/><path fill-rule="evenodd" clip-rule="evenodd" d="M17.582.437c-4.48.48-8.096 2.16-11.172 5.191-2.824 2.782-4.7 6.527-5.314 10.614C.9 17.555.9 20.305 1.098 21.57c.375 2.384 1.135 4.59 2.277 6.607l.374.66-.172.29c-.848 1.426-.943 2.744-.295 4.086.992 2.053 3.648 2.817 5.46 1.57.23-.159.445-.288.477-.288.033 0 .347.169.699.375 2.002 1.175 4.07 1.917 6.453 2.318 1.23.207 3.912.21 5.207.005 3.093-.488 5.813-1.65 8.256-3.529 3.821-2.937 6.323-7.237 7.059-12.135.198-1.314.196-4.064-.003-5.327-.376-2.39-1.118-4.567-2.22-6.515-.229-.404-.416-.763-.416-.797 0-.035.127-.255.282-.49 1.512-2.299.012-5.569-2.74-5.974-.965-.142-1.753.058-2.83.72l-.242.15-.646-.394C26.258 1.79 23.94.95 21.699.59 20.92.466 18.244.366 17.582.437zm-.264 2.685c-.88.094-2.367.427-3.28.734-1.026.345-3.012 1.381-3.918 2.044-2.212 1.619-3.764 3.465-4.978 5.924-2.36 4.78-2.175 10.42.497 15.083l.36.63.505-.041c2.234-.184 4.269 1.92 4.07 4.207l-.041.472.62.372a15.166 15.166 0 0011.113 1.828c1.31-.284 2.261-.633 3.632-1.331 2.388-1.218 4.201-2.808 5.791-5.082.675-.964 1.663-2.97 2.03-4.122a16.17 16.17 0 00-1.37-12.978l-.362-.632-.46.042c-2.237.203-4.294-1.878-4.114-4.163l.04-.516-.616-.37a15.236 15.236 0 00-9.518-2.101zm13.303 1.336c-.396.128-1.072.844-1.194 1.264-.223.775-.066 1.392.505 1.975.57.584 1.174.745 1.931.517.444-.134 1.112-.819 1.243-1.272.224-.774.066-1.392-.504-1.975-.568-.582-1.23-.751-1.981-.51zM18.6 7.082c-.816.334-1.706 1.739-2.35 3.71-.47 1.443-.952 3.868-.778 3.924.345.113 2.12.237 3.44.24 1.454.005 3.602-.156 3.666-.274.015-.027-.06-.533-.166-1.124-.764-4.246-2.414-7.049-3.812-6.476zm-4.01.805c-1.93.822-3.733 2.253-4.923 3.907l-.362.502.343.28c.643.526 1.928 1.148 3.183 1.542l.66.208.094-.59c.31-1.949.877-3.917 1.529-5.313.223-.478.356-.851.302-.85-.053.002-.424.143-.826.314zm8.283.536c.652 1.396 1.219 3.364 1.529 5.313l.094.59.66-.208c1.255-.394 2.54-1.016 3.183-1.542l.344-.28-.378-.525c-.908-1.261-2.643-2.765-3.994-3.463-.508-.262-1.643-.737-1.762-.737-.04 0 .105.383.324.852zm-14.732 6.23c-.95 2.546-1 5.461-.138 8.055.348 1.047.296 1.01.858.622.939-.646 2.707-1.417 4.071-1.774l.277-.072v-5.191l-.196-.058c-1.824-.54-3.073-1.07-3.995-1.696-.264-.18-.522-.353-.574-.385-.062-.04-.165.13-.303.5zm21.064-.26c-.84.614-2.763 1.448-4.358 1.889-.052.014-.078.946-.074 2.602l.007 2.581.922.285c1.393.43 2.84 1.125 3.759 1.805.169.125.178.115.383-.435a12.263 12.263 0 00.14-8.058c-.348-1.046-.31-1.014-.78-.67zM15.17 17.231c-.027.296-.05 1.04-.05 1.653s.023 1.357.05 1.653l.05.539.898-.115c1.182-.151 4.556-.15 5.753.001l.898.114.05-.539c.064-.693.064-2.613 0-3.306l-.05-.539-.898.115c-.547.07-1.672.115-2.877.115-1.204 0-2.329-.045-2.876-.115l-.898-.115-.05.539zm2.533 5.583c-1.453.13-2.228.22-2.271.268-.075.082.299 2.07.581 3.094.671 2.435 1.734 4.244 2.66 4.528 1.405.43 2.985-2.311 3.74-6.493.107-.59.172-1.098.144-1.128-.144-.154-3.838-.359-4.854-.269zm6.7 1.22c-.31 1.948-.877 3.916-1.529 5.312-.219.469-.365.852-.324.852.119 0 1.254-.475 1.762-.737 1.351-.698 3.086-2.202 3.994-3.463l.378-.525-.344-.28c-.643-.526-1.928-1.148-3.183-1.542l-.66-.208-.094.59zm-12.07-.21c-1.008.358-2.177.954-2.684 1.368l-.343.28.362.503c.863 1.2 2.359 2.547 3.645 3.283.576.329 1.935.933 2.11.938.064.001-.004-.212-.182-.574-.75-1.522-1.29-3.375-1.693-5.803-.036-.217-.092-.31-.189-.31-.075 0-.537.142-1.025.316zm-6.257 5.739c-.155.05-.465.279-.689.508-.57.585-.728 1.202-.504 1.976.13.453.8 1.138 1.243 1.272.757.228 1.36.067 1.931-.517.817-.835.817-1.895 0-2.73-.568-.582-1.23-.751-1.98-.51z"/></mask><path fill-rule="evenodd" clip-rule="evenodd" d="M17.582.437c-4.48.48-8.096 2.16-11.172 5.191-2.824 2.782-4.7 6.527-5.314 10.614C.9 17.555.9 20.305 1.098 21.57c.375 2.384 1.135 4.59 2.277 6.607l.374.66-.172.29c-.848 1.426-.943 2.744-.295 4.086.992 2.053 3.648 2.817 5.46 1.57.23-.159.445-.288.477-.288.033 0 .347.169.699.375 2.002 1.175 4.07 1.917 6.453 2.318 1.23.207 3.912.21 5.207.005 3.093-.488 5.813-1.65 8.256-3.529 3.821-2.937 6.323-7.237 7.059-12.135.198-1.314.196-4.064-.003-5.327-.376-2.39-1.118-4.567-2.22-6.515-.229-.404-.416-.763-.416-.797 0-.035.127-.255.282-.49 1.512-2.299.012-5.569-2.74-5.974-.965-.142-1.753.058-2.83.72l-.242.15-.646-.394C26.258 1.79 23.94.95 21.699.59 20.92.466 18.244.366 17.582.437zm-.264 2.685c-.88.094-2.367.427-3.28.734-1.026.345-3.012 1.381-3.918 2.044-2.212 1.619-3.764 3.465-4.978 5.924-2.36 4.78-2.175 10.42.497 15.083l.36.63.505-.041c2.234-.184 4.269 1.92 4.07 4.207l-.041.472.62.372a15.166 15.166 0 0011.113 1.828c1.31-.284 2.261-.633 3.632-1.331 2.388-1.218 4.201-2.808 5.791-5.082.675-.964 1.663-2.97 2.03-4.122a16.17 16.17 0 00-1.37-12.978l-.362-.632-.46.042c-2.237.203-4.294-1.878-4.114-4.163l.04-.516-.616-.37a15.236 15.236 0 00-9.518-2.101zm13.303 1.336c-.396.128-1.072.844-1.194 1.264-.223.775-.066 1.392.505 1.975.57.584 1.174.745 1.931.517.444-.134 1.112-.819 1.243-1.272.224-.774.066-1.392-.504-1.975-.568-.582-1.23-.751-1.981-.51zM18.6 7.082c-.816.334-1.706 1.739-2.35 3.71-.47 1.443-.952 3.868-.778 3.924.345.113 2.12.237 3.44.24 1.454.005 3.602-.156 3.666-.274.015-.027-.06-.533-.166-1.124-.764-4.246-2.414-7.049-3.812-6.476zm-4.01.805c-1.93.822-3.733 2.253-4.923 3.907l-.362.502.343.28c.643.526 1.928 1.148 3.183 1.542l.66.208.094-.59c.31-1.949.877-3.917 1.529-5.313.223-.478.356-.851.302-.85-.053.002-.424.143-.826.314zm8.283.536c.652 1.396 1.219 3.364 1.529 5.313l.094.59.66-.208c1.255-.394 2.54-1.016 3.183-1.542l.344-.28-.378-.525c-.908-1.261-2.643-2.765-3.994-3.463-.508-.262-1.643-.737-1.762-.737-.04 0 .105.383.324.852zm-14.732 6.23c-.95 2.546-1 5.461-.138 8.055.348 1.047.296 1.01.858.622.939-.646 2.707-1.417 4.071-1.774l.277-.072v-5.191l-.196-.058c-1.824-.54-3.073-1.07-3.995-1.696-.264-.18-.522-.353-.574-.385-.062-.04-.165.13-.303.5zm21.064-.26c-.84.614-2.763 1.448-4.358 1.889-.052.014-.078.946-.074 2.602l.007 2.581.922.285c1.393.43 2.84 1.125 3.759 1.805.169.125.178.115.383-.435a12.263 12.263 0 00.14-8.058c-.348-1.046-.31-1.014-.78-.67zM15.17 17.231c-.027.296-.05 1.04-.05 1.653s.023 1.357.05 1.653l.05.539.898-.115c1.182-.151 4.556-.15 5.753.001l.898.114.05-.539c.064-.693.064-2.613 0-3.306l-.05-.539-.898.115c-.547.07-1.672.115-2.877.115-1.204 0-2.329-.045-2.876-.115l-.898-.115-.05.539zm2.533 5.583c-1.453.13-2.228.22-2.271.268-.075.082.299 2.07.581 3.094.671 2.435 1.734 4.244 2.66 4.528 1.405.43 2.985-2.311 3.74-6.493.107-.59.172-1.098.144-1.128-.144-.154-3.838-.359-4.854-.269zm6.7 1.22c-.31 1.948-.877 3.916-1.529 5.312-.219.469-.365.852-.324.852.119 0 1.254-.475 1.762-.737 1.351-.698 3.086-2.202 3.994-3.463l.378-.525-.344-.28c-.643-.526-1.928-1.148-3.183-1.542l-.66-.208-.094.59zm-12.07-.21c-1.008.358-2.177.954-2.684 1.368l-.343.28.362.503c.863 1.2 2.359 2.547 3.645 3.283.576.329 1.935.933 2.11.938.064.001-.004-.212-.182-.574-.75-1.522-1.29-3.375-1.693-5.803-.036-.217-.092-.31-.189-.31-.075 0-.537.142-1.025.316zm-6.257 5.739c-.155.05-.465.279-.689.508-.57.585-.728 1.202-.504 1.976.13.453.8 1.138 1.243 1.272.757.228 1.36.067 1.931-.517.817-.835.817-1.895 0-2.73-.568-.582-1.23-.751-1.98-.51z" fill="url(#paint0_radial_31_668)"/><path clip-rule="evenodd" d="M17.582.437c-4.48.48-8.096 2.16-11.172 5.191-2.824 2.782-4.7 6.527-5.314 10.614C.9 17.555.9 20.305 1.098 21.57c.375 2.384 1.135 4.59 2.277 6.607l.374.66-.172.29c-.848 1.426-.943 2.744-.295 4.086.992 2.053 3.648 2.817 5.46 1.57.23-.159.445-.288.477-.288.033 0 .347.169.699.375 2.002 1.175 4.07 1.917 6.453 2.318 1.23.207 3.912.21 5.207.005 3.093-.488 5.813-1.65 8.256-3.529 3.821-2.937 6.323-7.237 7.059-12.135.198-1.314.196-4.064-.003-5.327-.376-2.39-1.118-4.567-2.22-6.515-.229-.404-.416-.763-.416-.797 0-.035.127-.255.282-.49 1.512-2.299.012-5.569-2.74-5.974-.965-.142-1.753.058-2.83.72l-.242.15-.646-.394C26.258 1.79 23.94.95 21.699.59 20.92.466 18.244.366 17.582.437zm-.264 2.685c-.88.094-2.367.427-3.28.734-1.026.345-3.012 1.381-3.918 2.044-2.212 1.619-3.764 3.465-4.978 5.924-2.36 4.78-2.175 10.42.497 15.083l.36.63.505-.041c2.234-.184 4.269 1.92 4.07 4.207l-.041.472.62.372a15.166 15.166 0 0011.113 1.828c1.31-.284 2.261-.633 3.632-1.331 2.388-1.218 4.201-2.808 5.791-5.082.675-.964 1.663-2.97 2.03-4.122a16.17 16.17 0 00-1.37-12.978l-.362-.632-.46.042c-2.237.203-4.294-1.878-4.114-4.163l.04-.516-.616-.37a15.236 15.236 0 00-9.518-2.101zm13.303 1.336c-.396.128-1.072.844-1.194 1.264-.223.775-.066 1.392.505 1.975.57.584 1.174.745 1.931.517.444-.134 1.112-.819 1.243-1.272.224-.774.066-1.392-.504-1.975-.568-.582-1.23-.751-1.981-.51zM18.6 7.082c-.816.334-1.706 1.739-2.35 3.71-.47 1.443-.952 3.868-.778 3.924.345.113 2.12.237 3.44.24 1.454.005 3.602-.156 3.666-.274.015-.027-.06-.533-.166-1.124-.764-4.246-2.414-7.049-3.812-6.476zm-4.01.805c-1.93.822-3.733 2.253-4.923 3.907l-.362.502.343.28c.643.526 1.928 1.148 3.183 1.542l.66.208.094-.59c.31-1.949.877-3.917 1.529-5.313.223-.478.356-.851.302-.85-.053.002-.424.143-.826.314zm8.283.536c.652 1.396 1.219 3.364 1.529 5.313l.094.59.66-.208c1.255-.394 2.54-1.016 3.183-1.542l.344-.28-.378-.525c-.908-1.261-2.643-2.765-3.994-3.463-.508-.262-1.643-.737-1.762-.737-.04 0 .105.383.324.852zm-14.732 6.23c-.95 2.546-1 5.461-.138 8.055.348 1.047.296 1.01.858.622.939-.646 2.707-1.417 4.071-1.774l.277-.072v-5.191l-.196-.058c-1.824-.54-3.073-1.07-3.995-1.696-.264-.18-.522-.353-.574-.385-.062-.04-.165.13-.303.5zm21.064-.26c-.84.614-2.763 1.448-4.358 1.889-.052.014-.078.946-.074 2.602l.007 2.581.922.285c1.393.43 2.84 1.125 3.759 1.805.169.125.178.115.383-.435a12.263 12.263 0 00.14-8.058c-.348-1.046-.31-1.014-.78-.67zM15.17 17.231c-.027.296-.05 1.04-.05 1.653s.023 1.357.05 1.653l.05.539.898-.115c1.182-.151 4.556-.15 5.753.001l.898.114.05-.539c.064-.693.064-2.613 0-3.306l-.05-.539-.898.115c-.547.07-1.672.115-2.877.115-1.204 0-2.329-.045-2.876-.115l-.898-.115-.05.539zm2.533 5.583c-1.453.13-2.228.22-2.271.268-.075.082.299 2.07.581 3.094.671 2.435 1.734 4.244 2.66 4.528 1.405.43 2.985-2.311 3.74-6.493.107-.59.172-1.098.144-1.128-.144-.154-3.838-.359-4.854-.269zm6.7 1.22c-.31 1.948-.877 3.916-1.529 5.312-.219.469-.365.852-.324.852.119 0 1.254-.475 1.762-.737 1.351-.698 3.086-2.202 3.994-3.463l.378-.525-.344-.28c-.643-.526-1.928-1.148-3.183-1.542l-.66-.208-.094.59zm-12.07-.21c-1.008.358-2.177.954-2.684 1.368l-.343.28.362.503c.863 1.2 2.359 2.547 3.645 3.283.576.329 1.935.933 2.11.938.064.001-.004-.212-.182-.574-.75-1.522-1.29-3.375-1.693-5.803-.036-.217-.092-.31-.189-.31-.075 0-.537.142-1.025.316zm-6.257 5.739c-.155.05-.465.279-.689.508-.57.585-.728 1.202-.504 1.976.13.453.8 1.138 1.243 1.272.757.228 1.36.067 1.931-.517.817-.835.817-1.895 0-2.73-.568-.582-1.23-.751-1.98-.51z" stroke="url(#paint1_radial_31_668)" stroke-width=".839" mask="url(#a)"/><defs><radialGradient id="paint0_radial_31_668" cx="0" cy="0" r="1" gradientUnits="userSpaceOnUse" gradientTransform="rotate(26.486 -5.027 17.761) scale(33.1233 39.2752)"><stop stop-color="#65C3FF"/><stop offset="1" stop-color="#0093F0"/></radialGradient><radialGradient id="paint1_radial_31_668" cx="0" cy="0" r="1" gradientUnits="userSpaceOnUse" gradientTransform="rotate(26.486 -5.027 17.761) scale(33.1233 39.2752)"><stop stop-color="#65C3FF"/><stop offset="1" stop-color="#0093F0"/></radialGradient></defs></svg>